<svg width="128" height="19" viewBox="0 0 128 19" fill="none" xmlns="http://www.w3.org/2000/svg">
<path d="M6.51419 18.24C5.39419 18.24 4.41019 18.032 3.56219 17.616C2.73019 17.184 2.08219 16.584 1.61819 15.816C1.15419 15.032 0.922188 14.112 0.922188 13.056V9.744C0.922188 8.672 1.15419 7.752 1.61819 6.984C2.08219 6.216 2.73019 5.624 3.56219 5.208C4.41019 4.776 5.39419 4.56 6.51419 4.56C8.17819 4.56 9.50619 4.992 10.4982 5.856C11.4902 6.704 12.0102 7.864 12.0582 9.336H9.05819C9.01019 8.648 8.76219 8.12 8.31419 7.752C7.88219 7.368 7.28219 7.176 6.51419 7.176C5.71419 7.176 5.08219 7.4 4.61819 7.848C4.15419 8.28 3.92219 8.904 3.92219 9.72V13.056C3.92219 13.872 4.15419 14.504 4.61819 14.952C5.08219 15.4 5.71419 15.624 6.51419 15.624C7.28219 15.624 7.88219 15.44 8.31419 15.072C8.76219 14.688 9.01019 14.152 9.05819 13.464H12.0582C12.0102 14.936 11.4902 16.104 10.4982 16.968C9.50619 17.816 8.17819 18.24 6.51419 18.24ZM15.5528 18V0.48H18.5528V9.984H20.6408L23.8568 4.8H27.2168L23.2328 11.184L27.2888 18H23.8568L20.6408 12.528H18.5528V18H15.5528ZM35.2474 18.24C34.1274 18.24 33.1514 18.024 32.3194 17.592C31.4874 17.16 30.8394 16.56 30.3754 15.792C29.9274 15.008 29.7034 14.096 29.7034 13.056V9.744C29.7034 8.704 29.9274 7.8 30.3754 7.032C30.8394 6.248 31.4874 5.64 32.3194 5.208C33.1514 4.776 34.1274 4.56 35.2474 4.56C36.3514 4.56 37.3114 4.776 38.1274 5.208C38.9594 5.64 39.5994 6.248 40.0474 7.032C40.5114 7.8 40.7434 8.704 40.7434 9.744V12.12H32.6074V13.056C32.6074 13.984 32.8314 14.688 33.2794 15.168C33.7274 15.632 34.3914 15.864 35.2714 15.864C35.9434 15.864 36.4874 15.752 36.9034 15.528C37.3194 15.288 37.5834 14.944 37.6954 14.496H40.6474C40.4234 15.632 39.8154 16.544 38.8234 17.232C37.8474 17.904 36.6554 18.24 35.2474 18.24ZM37.8394 10.44V9.72C37.8394 8.808 37.6234 8.112 37.1914 7.632C36.7594 7.136 36.1114 6.888 35.2474 6.888C34.3834 6.888 33.7274 7.136 33.2794 7.632C32.8314 8.128 32.6074 8.832 32.6074 9.744V10.248L38.0554 10.2L37.8394 10.44ZM51.0541 18C49.7901 18 48.7981 17.648 48.0781 16.944C47.3741 16.24 47.0221 15.272 47.0221 14.04V7.512H43.4461V4.8H47.0221V1.08H50.0461V4.8H55.1101V7.512H50.0461V14.04C50.0461 14.872 50.4541 15.288 51.2701 15.288H54.8701V18H51.0541ZM64.0047 18.24C63.3167 18.24 62.7647 18.04 62.3487 17.64C61.9487 17.24 61.7487 16.696 61.7487 16.008C61.7487 15.32 61.9487 14.776 62.3487 14.376C62.7647 13.96 63.3167 13.752 64.0047 13.752C64.6927 13.752 65.2367 13.96 65.6367 14.376C66.0527 14.776 66.2607 15.32 66.2607 16.008C66.2607 16.696 66.0527 17.24 65.6367 17.64C65.2367 18.04 64.6927 18.24 64.0047 18.24ZM77.8913 18.216C76.8833 18.216 76.0033 18.056 75.2513 17.736C74.4993 17.416 73.9073 16.976 73.4753 16.416C73.0593 15.84 72.8353 15.168 72.8033 14.4H75.8033C75.8353 14.816 76.0353 15.152 76.4033 15.408C76.7873 15.664 77.2833 15.792 77.8913 15.792H78.9473C79.6833 15.792 80.2353 15.648 80.6033 15.36C80.9713 15.072 81.1553 14.68 81.1553 14.184C81.1553 13.72 80.9873 13.36 80.6513 13.104C80.3313 12.832 79.8273 12.656 79.1393 12.576L77.5073 12.336C76.0033 12.128 74.8993 11.728 74.1953 11.136C73.4913 10.544 73.1393 9.656 73.1393 8.472C73.1393 7.24 73.5553 6.288 74.3873 5.616C75.2193 4.928 76.4433 4.584 78.0593 4.584H78.9713C80.4433 4.584 81.6193 4.912 82.4993 5.568C83.3793 6.224 83.8513 7.104 83.9153 8.208H80.9153C80.8673 7.856 80.6673 7.568 80.3153 7.344C79.9793 7.12 79.5313 7.008 78.9713 7.008H78.0593C77.3713 7.008 76.8673 7.136 76.5473 7.392C76.2433 7.632 76.0913 7.992 76.0913 8.472C76.0913 8.92 76.2273 9.256 76.4993 9.48C76.7713 9.688 77.2113 9.84 77.8193 9.936L79.5233 10.176C81.0913 10.4 82.2433 10.824 82.9793 11.448C83.7313 12.056 84.1073 12.96 84.1073 14.16C84.1073 15.44 83.6673 16.44 82.7873 17.16C81.9233 17.864 80.6433 18.216 78.9473 18.216H77.8913ZM92.8099 18.24C91.6899 18.24 90.7139 18.024 89.8819 17.592C89.0499 17.16 88.4019 16.56 87.9379 15.792C87.4899 15.008 87.2659 14.096 87.2659 13.056V9.744C87.2659 8.704 87.4899 7.8 87.9379 7.032C88.4019 6.248 89.0499 5.64 89.8819 5.208C90.7139 4.776 91.6899 4.56 92.8099 4.56C93.9139 4.56 94.8739 4.776 95.6899 5.208C96.5219 5.64 97.1619 6.248 97.6099 7.032C98.0739 7.8 98.3059 8.704 98.3059 9.744V12.12H90.1699V13.056C90.1699 13.984 90.3939 14.688 90.8419 15.168C91.2899 15.632 91.9539 15.864 92.8339 15.864C93.5059 15.864 94.0499 15.752 94.4659 15.528C94.8819 15.288 95.1459 14.944 95.2579 14.496H98.2099C97.9859 15.632 97.3779 16.544 96.3859 17.232C95.4099 17.904 94.2179 18.24 92.8099 18.24ZM95.4019 10.44V9.72C95.4019 8.808 95.1859 8.112 94.7539 7.632C94.3219 7.136 93.6739 6.888 92.8099 6.888C91.9459 6.888 91.2899 7.136 90.8419 7.632C90.3939 8.128 90.1699 8.832 90.1699 9.744V10.248L95.6179 10.2L95.4019 10.44ZM107.249 18.24C106.129 18.24 105.145 18.032 104.297 17.616C103.465 17.184 102.817 16.584 102.353 15.816C101.889 15.032 101.657 14.112 101.657 13.056V9.744C101.657 8.672 101.889 7.752 102.353 6.984C102.817 6.216 103.465 5.624 104.297 5.208C105.145 4.776 106.129 4.56 107.249 4.56C108.913 4.56 110.241 4.992 111.233 5.856C112.225 6.704 112.745 7.864 112.793 9.336H109.793C109.745 8.648 109.497 8.12 109.049 7.752C108.617 7.368 108.017 7.176 107.249 7.176C106.449 7.176 105.817 7.4 105.353 7.848C104.889 8.28 104.657 8.904 104.657 9.72V13.056C104.657 13.872 104.889 14.504 105.353 14.952C105.817 15.4 106.449 15.624 107.249 15.624C108.017 15.624 108.617 15.44 109.049 15.072C109.497 14.688 109.745 14.152 109.793 13.464H112.793C112.745 14.936 112.225 16.104 111.233 16.968C110.241 17.816 108.913 18.24 107.249 18.24ZM123.007 18C121.743 18 120.751 17.648 120.031 16.944C119.327 16.24 118.975 15.272 118.975 14.04V7.512H115.399V4.8H118.975V1.08H121.999V4.8H127.063V7.512H121.999V14.04C121.999 14.872 122.407 15.288 123.223 15.288H126.823V18H123.007Z" fill="white"/>
</svg>
